<svg width="21" height="15" viewBox="0 0 21 15" fill="none" xmlns="http://www.w3.org/2000/svg">
<path d="M20.082 2.7002C19.8535 1.83301 19.1797 1.15625 18.3125 0.918945C16.7539 0.5 10.499 0.5 10.499 0.5C10.499 0.5 4.24414 0.5 2.68555 0.918945C1.82129 1.15332 1.14746 1.83301 0.916016 2.7002C0.5 4.27051 0.5 7.5459 0.5 7.5459C0.5 7.5459 0.5 10.8213 0.918945 12.3916C1.15039 13.2588 1.82129 13.9355 2.68848 14.1729C4.24707 14.5918 10.502 14.5918 10.502 14.5918C10.502 14.5918 16.7568 14.5918 18.3154 14.1729C19.1797 13.9385 19.8535 13.2588 20.085 12.3916C20.5039 10.8213 20.5039 7.5459 20.5039 7.5459C20.5039 7.5459 20.498 4.27051 20.082 2.7002ZM8.4541 10.5195V4.57227L13.6807 7.5459L8.4541 10.5195Z" fill="white"/>
</svg>
