<svg width="20" height="21" viewBox="0 0 20 21" fill="none" xmlns="http://www.w3.org/2000/svg">
<path fill-rule="evenodd" clip-rule="evenodd" d="M10.0419 19.9235H10.0377C8.37112 19.923 6.73348 19.5048 5.27898 18.7114L0 20.0962L1.41274 14.936C0.541295 13.4258 0.0827425 11.7127 0.0834898 9.95757C0.0856743 4.46701 4.55292 0 10.0418 0C12.7057 0.00114974 15.206 1.03821 17.0861 2.92052C18.9662 4.80273 20.0011 7.30465 20 9.96542C19.9978 15.4547 15.5323 19.9213 10.0419 19.9235V19.9235ZM5.52352 16.9098L5.82576 17.0892C7.09655 17.8433 8.55325 18.2423 10.0385 18.2429H10.0418C14.6038 18.2429 18.3167 14.5299 18.3186 9.96602C18.3194 7.75441 17.4593 5.67492 15.8967 4.11042C14.334 2.54591 12.2558 1.6839 10.0451 1.68313C5.4796 1.68313 1.76658 5.39582 1.76477 9.95931C1.76413 11.5233 2.20172 13.0463 3.03024 14.3641L3.22704 14.6773L2.3909 17.7316L5.52352 16.9098ZM15.0587 12.3334C14.9965 12.2296 14.8307 12.1673 14.5818 12.0427C14.333 11.9182 13.1097 11.3163 12.8816 11.2332C12.6536 11.1502 12.4876 11.1087 12.3218 11.3577C12.1559 11.6068 11.6791 12.1673 11.5339 12.3334C11.3887 12.4994 11.2436 12.5202 10.9949 12.3956C10.746 12.2711 9.9443 12.0084 8.99388 11.1607C8.25418 10.5008 7.75481 9.68607 7.60967 9.43697C7.46452 9.18786 7.59419 9.05324 7.71876 8.92917C7.8307 8.81764 7.9676 8.63848 8.092 8.49323C8.2164 8.34798 8.25787 8.24412 8.34081 8.07817C8.42375 7.91204 8.38229 7.76679 8.32007 7.64224C8.25787 7.51768 7.76025 6.29293 7.55291 5.79471C7.35092 5.30953 7.1458 5.37525 6.99307 5.36759C6.8481 5.36031 6.68204 5.35877 6.51618 5.35877C6.35032 5.35877 6.08073 5.42105 5.85266 5.67016C5.62459 5.91927 4.98181 6.52125 4.98181 7.7459C4.98181 8.97065 5.87339 10.1538 5.99781 10.3199C6.12221 10.486 7.75234 12.9992 10.2484 14.077C10.842 14.3333 11.3055 14.4864 11.6669 14.6011C12.2629 14.7905 12.8054 14.7638 13.2341 14.6997C13.7122 14.6283 14.7062 14.0978 14.9136 13.5166C15.1209 12.9353 15.1209 12.4371 15.0587 12.3334V12.3334Z" fill="#FDFDFD"/>
</svg>
