<svg width="21" height="21" viewBox="0 0 21 21" fill="none" xmlns="http://www.w3.org/2000/svg">
<path fill-rule="evenodd" clip-rule="evenodd" d="M15.6052 8.18505C15.5262 7.54383 15.3291 7.04036 14.9791 6.59439C14.5247 6.02014 13.9439 5.67628 13.084 5.47229C12.5236 5.33633 12.2972 5.35194 12.0946 5.53706C11.9058 5.71051 11.8689 6.05822 12.0132 6.28339C12.1146 6.44681 12.2317 6.50536 12.5572 6.56926C12.9907 6.64902 13.2903 6.75253 13.5628 6.90835C14.1412 7.24233 14.4106 7.76496 14.4394 8.61107C14.4529 9.00835 14.4872 9.13049 14.626 9.27139C14.8832 9.52896 15.3409 9.47886 15.535 9.17064C15.6063 9.05447 15.6171 9.0039 15.6246 8.73414C15.6296 8.56713 15.6224 8.31854 15.6052 8.18505V8.18505Z" fill="white"/>
<path fill-rule="evenodd" clip-rule="evenodd" d="M17.8707 8.90817C17.7565 6.94368 16.9881 5.36314 15.6129 4.25111C14.8381 3.62626 13.9016 3.1966 12.875 2.98764C12.4989 2.91291 11.8066 2.85233 11.6878 2.88698C11.5757 2.91907 11.4172 3.04043 11.3465 3.15018C11.2718 3.2692 11.2549 3.53494 11.3187 3.68865C11.4216 3.94561 11.613 4.03639 12.149 4.08329C12.9753 4.15559 13.8276 4.4459 14.4716 4.8757C15.2068 5.36506 15.7913 6.03439 16.1694 6.82092C16.496 7.4967 16.697 8.47058 16.6914 9.34268C16.6895 9.6581 16.7382 9.83623 16.8651 9.96646C17.0565 10.1667 17.3356 10.2105 17.5819 10.0775C17.8549 9.93393 17.9188 9.68193 17.8707 8.90817V8.90817Z" fill="white"/>
<path fill-rule="evenodd" clip-rule="evenodd" d="M20.3776 16.4734C20.3392 16.3611 20.2496 16.1879 20.1855 16.0884C19.7819 15.479 17.6137 13.7822 16.5311 13.2272C15.913 12.9097 15.455 12.8039 15.1155 12.9032C14.7504 13.0059 14.5582 13.1759 13.9465 13.9361C13.6999 14.2409 13.4469 14.5263 13.3796 14.5712C13.2131 14.6867 12.8864 14.7798 12.6558 14.7798C12.1209 14.7765 11.1505 14.4301 10.4042 13.9746C9.82454 13.6218 9.08154 12.9899 8.51141 12.3644C7.8388 11.6299 7.38086 10.9819 7.01891 10.2506C6.55133 9.31076 6.43283 8.73657 6.62817 8.31636C6.67622 8.21052 6.74029 8.09828 6.76907 8.06295C6.79792 8.03092 7.099 7.7839 7.43205 7.51446C8.08544 6.99485 8.19112 6.87617 8.31282 6.52011C8.46655 6.06781 8.42494 5.60592 8.18793 5.14084C8.00536 4.78798 7.52815 4.01816 7.18227 3.52099C6.72427 2.86666 5.58408 1.46814 5.35665 1.27883C4.9467 0.945273 4.4215 0.887502 3.84174 1.11208C3.23007 1.34945 2.08344 2.27324 1.59341 2.91798C1.15142 3.50175 0.981731 3.91551 0.956083 4.46082C0.933679 4.90986 0.972098 5.09591 1.20911 5.67009C3.06351 10.1736 5.83066 13.7693 9.63238 16.6241C11.6181 18.1156 13.6775 19.2512 15.8137 20.0274C17.0596 20.4797 17.6008 20.5021 18.2382 20.1301C18.5072 19.9697 19.1734 19.2865 19.5449 18.7893C20.1599 17.9617 20.3873 17.58 20.4513 17.2753C20.4961 17.0668 20.4609 16.7043 20.3776 16.4734Z" fill="white"/>
<path fill-rule="evenodd" clip-rule="evenodd" d="M20.1769 9.35916C20.1359 8.24793 19.9488 7.33645 19.5587 6.32023C19.1735 5.3206 18.7837 4.66829 18.0475 3.78602C17.3515 2.95879 16.8109 2.48646 15.9535 1.96069C14.7573 1.22814 13.3015 0.743366 11.6701 0.539491C11.1137 0.468238 10.9878 0.473327 10.8172 0.587219C10.4864 0.802972 10.4908 1.34111 10.8226 1.55363C10.9324 1.62123 11.0299 1.64586 11.4749 1.70411C12.1581 1.79609 12.5974 1.88277 13.1187 2.025C15.1627 2.58376 16.7346 3.7259 17.7855 5.42134C18.6649 6.83452 19.03 8.24779 18.9782 10.0528C18.9601 10.663 18.9732 10.7704 19.0665 10.917C19.2451 11.1903 19.7162 11.2443 19.9579 11.0176C20.1083 10.8794 20.1366 10.7756 20.1662 10.2533C20.1804 9.98089 20.1835 9.57869 20.1769 9.35916V9.35916Z" fill="white"/>
</svg>
