<svg width="20" height="20" class="hidden">
  <symbol  xmlns="http://www.w3.org/2000/svg" viewBox="0 0 20 20" id="instagram">
    <path d="M10.006 1.801c2.673 0 2.99.012 4.041.059.977.043 1.505.207 1.857.344.465.18.801.398 1.149.746.352.351.567.684.746 1.148.137.352.301.883.344 1.856.047 1.055.06 1.372.06 4.04 0 2.672-.013 2.989-.06 4.04-.043.977-.207 1.504-.344 1.856-.18.465-.398.8-.746 1.148a3.078 3.078 0 01-1.15.747c-.35.137-.883.3-1.856.343-1.055.047-1.372.06-4.041.06-2.674 0-2.99-.013-4.042-.06-.977-.042-1.504-.206-1.856-.343a3.094 3.094 0 01-1.15-.747 3.076 3.076 0 01-.746-1.148c-.137-.352-.3-.883-.344-1.856-.047-1.055-.058-1.371-.058-4.04 0-2.672.011-2.989.058-4.04.043-.976.207-1.504.344-1.856.18-.464.399-.8.747-1.148a3.078 3.078 0 011.149-.746c.352-.137.883-.301 1.856-.344 1.052-.047 1.368-.059 4.042-.059zm0-1.801C7.289 0 6.949.012 5.882.059 4.82.105 4.088.277 3.455.524c-.66.257-1.22.597-1.774 1.156A4.9 4.9 0 00.524 3.45C.278 4.087.106 4.813.059 5.876.012 6.946 0 7.286 0 10.002c0 2.715.012 3.055.059 4.122.047 1.063.219 1.793.465 2.426.258.66.598 1.22 1.157 1.774a4.892 4.892 0 001.77 1.152c.637.247 1.364.419 2.427.465 1.067.047 1.408.059 4.124.059 2.716 0 3.056-.012 4.123-.059 1.064-.046 1.794-.218 2.428-.464a4.892 4.892 0 001.77-1.153 4.89 4.89 0 001.153-1.77c.247-.637.419-1.363.465-2.426.047-1.067.059-1.407.059-4.122 0-2.716-.012-3.055-.059-4.122-.046-1.063-.218-1.793-.465-2.426a4.685 4.685 0 00-1.145-1.778 4.892 4.892 0 00-1.77-1.153C15.923.281 15.196.11 14.133.063 13.063.012 12.723 0 10.006 0z"></path>
    <path d="M10.006 4.864a5.14 5.14 0 00-5.14 5.138 5.14 5.14 0 0010.28 0 5.14 5.14 0 00-5.14-5.138zm0 8.47a3.334 3.334 0 110-6.667 3.334 3.334 0 010 6.668zm6.543-8.674a1.2 1.2 0 11-2.4 0 1.2 1.2 0 012.4 0z" ></path>
  </symbol>
<symbol xmlns="http://www.w3.org/2000/svg" viewBox="0 0 10 20" id="shape">
    <path fill-rule="evenodd" clip-rule="evenodd" d="M6.205 20V9.999h2.761l.366-3.447H6.205l.005-1.725c0-.899.085-1.38 1.377-1.38h1.725V0h-2.76C3.234 0 2.066 1.672 2.066 4.484v2.069H0v3.446h2.067V20h4.138z" ></path>
  </symbol>



  
</svg>
